<?xml version="1.0" encoding="UTF-8"?>
<svg xmlns="http://www.w3.org/2000/svg" version="1.1" viewBox="0 0 2450 2050">
  <!-- Generator: Adobe Illustrator 29.0.1, SVG Export Plug-In . SVG Version: 2.1.0 Build 192)  -->
  <defs>
    <style>
      .st0, .st1 {
        fill: #c49060;
      }

      .st2 {
        fill: #d4a67b;
      }

      .st2, .st1, .st3, .st4, .st5 {
        fill-rule: evenodd;
      }

      .st3 {
        fill: #e3b994;
      }

      .st6 {
        fill: #d1a479;
      }

      .st4 {
        fill: #6e3c1c;
      }

      .st5 {
        fill: #d1a479;
      }

      .st7 {
        fill: #6e3c1c;
      }
    </style>
  </defs>
  <g id="Name_part_2">
    <g>
      <path class="st6" d="M247.2,1364.9c-13.4-10.3-27.7-20.6-47.9-20.6-34.5,0-52.4,28.6-52.4,56.8s18.8,36.2,27.3,36.2,11.6-1.8,14.3-2.7l.9,4.9c-10.3,17.5-22.4,24.2-38.9,24.2s-49.2-9.4-49.2-49.2,44.3-85.5,98.9-85.5,81.4,23.3,108.3,23.3,36.2-9.8,49.7-31.8l4,2.2c-11.6,36.2-26.8,66.2-61.8,66.2s-21.9-3.6-30.9-8.5c-4,14.8-6.3,29.1-8.5,51-5.8,60.4-2.7,144.1-5.4,158.9-2.2,11.6-16.1,15.2-35.4,15.2s-24.2-1.3-31.3-6.3c3.1-51,2.7-102,9.8-137.4,7.6-38,24.2-69.4,48.3-97.1Z"/>
      <path class="st6" d="M414.6,1521.5c10.3-43.9,26-95.8,68.9-95.8s36.2,12.5,36.2,41.6-9.4,60-9.4,100.7,1.3,35.8,9.8,35.8c13,0,30.9-45.6,44.3-91.7l2.7-8.9,10.3,1.3-3.1,9.4c-22.8,79.7-41.2,110.1-72.5,110.1s-48.3-26.4-48.3-76.1,8.9-82.8,8.9-92.2-1.3-5.4-3.1-5.4c-10.3,0-22.8,40.7-27.7,56.8-13.9,45.2-17.5,71.6-24.6,92.6-.4,1.3-.4,2.2-.9,2.7-7.6,1.3-14.3,1.8-20.1,1.8-31.8,0-34.9-12.5-34.9-30s1.8-38.9,2.7-52.4c7.2-112.8,18.8-162,18.8-192.9.9-2.7,7.6-3.1,13.4-3.1,17,0,46.1,6.3,46.5,20.6l-1.3,11.2c-6.3,66.2-15.7,134.3-15.7,150.4-.4,4.9-.9,8.9-.9,13.4Z"/>
      <path class="st6" d="M618.6,1532.7c1.8,27.7,11.2,52.4,35.8,52.4s44.3-22.4,62.2-48.8l17.9-26.8,9.4,4.9-18.8,27.3c-20.6,30-45.6,64.4-91.7,64.4s-77.9-41.2-77.9-85.5,22.8-98.4,93.5-98.4,57.7,13.4,57.7,38.5-39.4,49.2-80.1,68l-8.1,4ZM618.2,1518.8l8.5-4c24.6-11.2,38-35.8,38-55.9s-4-16.1-10.3-16.1c-16.1,0-35.8,28.2-36.2,76.1Z"/>
      <path class="st7" d="M938.1,1563.6c-34,35.8-67.1,46.5-100.7,46.5-67.1,0-115.5-43.4-115.5-124.9s53.7-154.4,134.7-154.4,63.5,18.8,63.5,49.2-26.4,56.4-66.2,56.4-21.5-2.2-30-5.4v-4h4.5c21.5,0,36.2-38,36.2-60s-4.9-22.8-13.4-22.8c-34.9,0-60,82.3-60,151.7s25.1,97.1,59.1,97.1,50.1-7.2,81.4-36.7l6.3,7.2Z"/>
      <path class="st7" d="M1016,1541.6c0,30.9,8.9,54.6,23.3,54.6s24.2-12.5,31.3-44.3c-20.6-7.2-41.6-24.2-41.6-60.4s13-47,33.6-47,42.5,12.5,42.5,65.3-1.3,25.5-4,37.1c25.1,0,42.1-23.7,54.1-47.4l7.2,4.9c-14.3,27.7-33.1,51.5-63.5,51.9-9.4,30.4-30,53.7-67.6,53.7s-81.9-35.8-81.9-79.7,26-112.3,103.4-112.3,35.8,1.3,35.8,15.7-2.7,9.4-5.8,11.2c-8.9-4.9-15.7-8.5-26.4-8.5-24.6,0-40.3,38.5-40.3,105.2ZM1073.3,1534c.9-9.4,1.8-19.7,1.8-31.8,0-34-5.8-43.9-10.3-43.9s-7.2,9.4-7.2,26c0,23.7,6.3,39.8,15.7,49.7Z"/>
      <path class="st7" d="M1270.6,1585.5c.9,5.8.9,11.6.4,17-4.9,44.7-44.3,93.1-109.6,93.1s-30.4-12.1-29.1-26c3.6-28.6,42.1-45.2,76.1-60,.9-4,1.8-8.1,2.2-12.1,2.7-25.1-3.1-43-22.8-37.1-4,.9-16.6,5.8-19.2,7.6l-.9-1.8-1.8-6.7v-.4c.9,0,1.3-.4,2.2-.4l6.7-2.7c22.4-11.2,47.4-40.3,51.5-80.6,3.6-28.2-6.7-32.7-13.4-32.7-15.2,0-24.6,25.1-26.9,43-1.8,13.4,2.2,19.2,8.5,24.2-8.5,4.5-17.9,7.2-26.8,7.2-14.3,0-26.9-7.2-24.2-30.9,2.7-25.5,21.9-56.8,75.2-56.8s67.6,15.2,63.5,51.5c-3.6,31.8-28.2,51-58.2,64.9,24.6.9,37.6,13.4,43.4,28.2,33.6-29.1,59.1-64.4,67.6-76.5l6.7,5.4c-6.3,9.4-33.6,51.9-71.2,82.8ZM1205.3,1620.8c-26.9,10.7-54.6,24.2-56.8,44.3-.9,10.7,3.1,14.3,9.8,14.3,17.9,0,37.6-30,47-58.6Z"/>
      <path class="st7" d="M1387.9,1471.8c-.4,17-3.6,47.4-4.5,69.4-.9,26,2.7,53.3,12.5,53.3s29.1-33.1,32.2-142.3c.4-7.2.9-12.5,3.1-17.5,10.7-1.8,25.1-2.7,33.6-2.7,20.6.4,24.6,6.3,24.6,26-.9,20.6-7.2,76.5-8.1,94.4l-.9,34.5c17-19.2,30.4-41.6,57.7-87.3l9.8,8.1c-28.2,47.9-47.4,71.6-69.8,102-1.3,42.5-30.9,109.2-75.6,109.2s-26.4-12.1-26.4-27.3c1.3-27.7,30-42.5,49.2-63.1v-13.4c0-13.9-.4-28.6-1.3-41.6-13,26.8-23.7,44.3-48.3,44.3s-54.6-28.6-53.3-73.8c.4-21.5,7.6-54.1,8.1-76.5.4-15.7-2.2-28.2-2.2-35.4,6.3-2.2,11.2-2.7,17.5-2.7,36.7,0,43,15.7,42.1,42.5ZM1402.7,1702.7c17,0,21.9-27.3,22.4-56.8-14.8,13.4-32.2,26.4-32.7,43.9-.4,8.9,3.6,13,10.3,13Z"/>
      <path class="st0" d="M1747.7,1450.8c0,72-35.4,158.4-115,158.4s-98.9-41.2-98.9-113.2,38-162.4,118.1-162.4,95.8,42.5,95.8,117.2ZM1603.6,1484.8c0,45.6,8.1,107.8,30,107.8s45.6-66.7,45.6-142.8-7.2-99.3-32.2-99.3-43.4,61.8-43.4,134.3Z"/>
      <path class="st0" d="M1880.6,1530.9c-17.5-16.6-26.4-43.9-26.4-65.8,0-33.1,21.9-43,38-43s26.8,5.8,26.8,29.5-.4,22.8-21,67.6c5.4,11.6,13.9,16.6,25.1,16.6,20.6,0,36.2-21,46.1-39.8l6.7,4.9c-12.5,21-30,45.6-57.7,45.6s-20.6-3.1-28.6-8.1l-18.8,41.2c-8.9,19.7-18.3,41.2-45.6,41.2s-34-9.8-40.3-71.2l-11.6-117.7c0-2.7,5.8-3.1,10.7-3.1,36.7,0,48.8,5.8,50.1,20.6l4.5,50.6c6.3,77.9,6.3,88.6,11.6,88.6s7.6-7.2,11.2-14.8l19.2-43ZM1893.1,1503.1c13.4-30.4,15.2-39.4,15.2-49.7s-3.1-13.4-7.2-13.4-10.3,7.2-10.3,30.4.9,23.7,2.2,32.7Z"/>
      <path class="st0" d="M2008.1,1532.7c1.8,27.7,11.2,52.4,35.8,52.4s44.3-22.4,62.2-48.8l17.9-26.8,9.4,4.9-18.8,27.3c-20.6,30-45.6,64.4-91.7,64.4s-77.9-41.2-77.9-85.5,22.8-98.4,93.5-98.4,57.7,13.4,57.7,38.5-39.4,49.2-80.1,68l-8.1,4ZM2007.7,1518.8l8.5-4c24.6-11.2,38-35.8,38-55.9s-4-16.1-10.3-16.1c-16.1,0-35.8,28.2-36.2,76.1Z"/>
      <path class="st0" d="M2185.3,1457.9c0,21-1.8,44.3-1.8,65.3,10.3-38,23.7-97.6,67.6-97.6s36.7,13,36.7,40.7-7.2,54.1-7.2,97.1.9,29.5,8.1,29.5,18.3-13.4,40.7-68.5l10.3-24.6,9,3.6-10.3,24.6c-26,62.2-43,87.7-72.5,87.7s-44.7-36.7-44.7-69.4,8.9-85.9,8.9-92.6-.9-3.6-2.7-3.6c-10.7,0-25.1,47.9-33.1,76.1-8.5,26.9-14.3,60-20.1,76.1-7.6,1.3-14.3,1.8-19.7,1.8-30,0-35.8-12.5-35.8-30.9s6.3-115.9,6.3-141.4c3.6-1.3,11.2-3.1,17.5-3.1,14.8,0,43,2.7,43,29.1Z"/>
    </g>
  </g>
  <g id="Layer_1">
    <g>
      <path id="Layer_71" data-name="Layer_7" class="st1" d="M593,809l-228.2-76.4c-7.3-2.4-13.2-6.8-16.7-12.4-4.5-7.1-5.1-16.2.5-25.3,39.2-62.7,87.1-119.4,141.3-169.6,5.2-4.5,11-7.3,16.9-7.8,6-.6,12.1,1.3,17.7,6.2l171.3,150.5c5.7,5,8.8,11.8,9,18.6.2,6.7-2.2,13.4-7.7,18.6-28,26.7-53.5,56-75.5,87.8-3,4.5-7.4,7.9-12.5,9.6-5,1.8-10.6,1.9-16.1.1h0ZM1856.1,809.2l228.2-76.4c7.2-2.4,13.2-6.8,16.7-12.4,4.5-7.1,5.1-16.2-.5-25.3-39.2-62.7-87.1-119.4-141.3-169.6-5.2-4.5-11-7.3-16.9-7.8-6-.6-12.1,1.3-17.7,6.2l-171.3,150.5c-5.6,5-8.8,11.8-9,18.6-.2,6.7,2.2,13.4,7.7,18.6,28,26.7,53.5,56,75.5,87.8,3,4.5,7.4,7.9,12.4,9.6,5,1.8,10.7,1.9,16.1.1h0ZM966.9,200.2c-27.7,5.9-44.4,17.7-51.5,34.1-7.3,16.8-4.5,38.3,6.9,63.1,60.5,131.7,92.6,201.5,96.3,209.4,3.3,7.1,7,14.5,12.3,19.5,5,4.7,11.4,7.1,20.2,5,114.1-23.5,232.7-23.5,346.8,0,7.6,1.8,14.3.2,20-4.9,4.6-4.1,8.6-10.3,12.1-18.8,0,0,32.2-70.1,96.6-210.2,11.4-24.8,14.2-46.4,6.9-63.1-7.1-16.3-23.8-28.2-51.5-34.1-169.1-36.6-345.8-36.6-514.9,0Z"/>
      <path id="Layer_61" data-name="Layer_6" class="st5" d="M509.1,1072.7h-244.9c-7.4,0-14.1-3-18.9-7.8-4.4-4.6-7-10.8-6.8-17.9,2.7-72.4,16.6-143.1,41.3-211.1,2.6-7.1,7.5-12.6,13.6-15.4,5.3-2.5,11.6-3,18-.8l227.4,76.1c7.4,2.5,13.4,7.1,16.7,13,3,5.4,3.8,11.9,1.4,19.1-12.7,38.5-20.6,78.5-22.9,119-.4,6.7-2.4,12.7-6,17.3-4.2,5.4-10.6,8.7-18.9,8.7h0ZM1665.3,620.8l172.8-151.9c6.4-5.7,9.5-13.7,8.9-21.5-.5-7.1-4.2-14-11.1-18.5-59.1-38.8-121.9-71.1-187.7-97-7.1-2.6-14.5-2.5-20.7.4-5,2.3-9.2,6.4-11.8,12.1l-90.3,196.4c-2.6,5.8-3,12.1-1.5,17.7,1.9,7,6.9,13,14.4,16.1,33,13.5,65.6,29.7,96.2,47.9,5,3.4,10.5,4.9,16.6,4.4,5.1-.5,10.1-2.5,14.2-6.1h0ZM1940.9,1073.4h245c7.4,0,14.1-2.9,18.9-7.8,4.4-4.6,7-10.8,6.8-18-2.7-72.4-16.6-143.1-41.3-211.1-2.6-7.1-7.5-12.6-13.7-15.4-5.3-2.5-11.6-3-18-.8l-227.4,76.1c-7.4,2.5-13.4,7.1-16.7,13-3,5.4-3.8,11.9-1.4,19.1,12.7,38.5,20.6,78.5,22.9,119,.4,6.7,2.4,12.7,6,17.3,4.2,5.4,10.6,8.7,18.9,8.7h0ZM784.7,620.2l-172.8-151.9c-6.4-5.7-9.5-13.7-8.9-21.5.5-7.1,4.2-14,11.1-18.5,59.1-38.8,121.9-71.1,187.7-97,7.1-2.6,14.5-2.5,20.6.4,5,2.3,9.2,6.4,11.8,12.1l90.3,196.4c2.6,5.8,3,12.1,1.5,17.7-1.9,7-6.9,13-14.4,16.1-33,13.5-65.6,29.7-96.2,47.9-5.1,3.4-10.5,4.9-16.6,4.4-5.1-.5-10-2.5-14.2-6.1Z"/>
      <path id="Layer_51" data-name="Layer_5" class="st2" d="M534.3,714.1l-109-36.5c-4.4-1.5-7.6-5-8.6-9-.9-3.5-.3-7.3,2.3-10.6,13.3-16.9,27.5-33.2,42.2-48.9,2.4-2.4,5.3-3.8,8.3-4.1,3.2-.3,6.4.6,9.2,3l79.6,69.9c2.6,2.2,4.2,5.3,4.5,8.4.4,3.2-.6,6.6-2.9,9.3-3.9,4.6-7.7,9.2-11.5,13.9-1.5,2-3.6,3.6-5.9,4.4-2.6,1-5.5,1.1-8.2.2h0ZM1835,714l109-36.5c4.4-1.5,7.6-5,8.6-9,.9-3.5.3-7.3-2.3-10.6-13.3-16.9-27.5-33.2-42.2-48.9-2.4-2.4-5.3-3.8-8.3-4.1-3.2-.3-6.4.6-9.2,3l-79.6,69.9c-2.6,2.2-4.2,5.3-4.5,8.4-.4,3.2.6,6.6,2.9,9.3,3.9,4.6,7.7,9.2,11.5,13.9,1.5,2,3.6,3.5,5.9,4.4,2.6,1,5.5,1.1,8.2.1h0ZM987,276.9c-3.3-5.4-3.3-11.7-.9-16.8,2.2-4.6,6.4-8.3,12-9.5,74.7-16.1,149.4-24.2,225.8-24.6,6,0,11.3,2.2,14.8,5.9,4,4.2,5.6,10.2,3.4,17l-9.2,26.9c-1.3,3.7-3.3,6.8-5.9,9-2.8,2.4-6.4,3.8-10.7,3.8-65.9.5-130.1,7.5-194.7,21-3.5.7-6.9.6-10-.4-3.8-1.2-7-3.6-9.4-7.4-5.1-8.4-10.1-16.7-15.2-25.1Z"/>
      <path id="Layer_41" data-name="Layer_4" class="st3" d="M784.8,522l-8.5,4.4c-2.6,1.6-5.6,2.2-8.5,1.8-2.3-.3-4.5-1.3-6.4-3l-75.8-66.7c-3.7-3.2-5.1-7.9-4.2-12.1.7-3.4,2.8-6.6,6.4-8.5,15.7-8.3,31.5-16.3,47.6-23.8,3.7-1.4,7.6-1.5,10.8-.1,2.5,1.1,4.6,3.1,6,6.1l38.9,84.7c1.4,2.8,1.7,5.5,1.2,8-.7,3.8-3.4,7.1-7.5,9.2h0ZM413.5,988h-120.9c-4.3,0-7.8-1.5-10.1-4-2.5-2.7-3.6-6.5-3-11.1,3.1-21.1,7.3-42.2,12.5-62.9,1.1-4,3.3-7,6.2-8.7,2.9-1.6,6.5-2,10.5-.7l113.2,37.9c2.5.7,4.6,2.2,6.1,4.1,2.2,2.8,3.3,6.5,2.5,10.3-1.6,7.9-3.2,15.7-4.5,23.7-.5,2.8-1.6,5.3-3.2,7.3-2.1,2.5-5.2,4.1-9.2,4.1h0ZM1584.7,521.8l8.5,4.4c2.5,1.6,5.6,2.2,8.5,1.8,2.3-.3,4.5-1.3,6.4-3l75.9-66.7c3.7-3.2,5.1-7.9,4.2-12.1-.7-3.4-2.8-6.6-6.4-8.5-15.7-8.3-31.5-16.3-47.6-23.8-3.7-1.4-7.6-1.5-10.8-.1-2.5,1.1-4.6,3.1-6,6.1l-38.9,84.7c-1.4,2.8-1.7,5.5-1.2,8,.7,3.8,3.4,7.2,7.5,9.2h0ZM1956.1,987.7h120.9c4.3,0,7.8-1.5,10.1-4,2.5-2.7,3.6-6.5,3-11.1-3.1-21.1-7.3-42.2-12.5-62.9-1.1-4-3.3-7-6.2-8.7-2.9-1.6-6.5-2-10.5-.7l-113.2,37.9c-2.5.7-4.6,2.2-6.1,4.1-2.2,2.8-3.3,6.6-2.5,10.3,1.7,7.9,3.2,15.7,4.5,23.7.5,2.8,1.6,5.3,3.2,7.3,2.1,2.5,5.2,4.1,9.2,4.1Z"/>
      <path id="Layer_31" data-name="Layer_3" class="st5" d="M937.4,1072.7h299.9c4.5,8.7,12.3,15.4,21.9,18.4,4.3,1.4,6.9.7,7.5-.9.6-1.6-.9-4.2-5-6.5-10.3-5.8-16.1-16.1-14.2-28.2,2.1-13,13.1-25.8,31.4-30.4,16.6-4.1,44.2-4.7,58.4-11.7,11.4-5.6,17.3-6.9,18.6-4.8,1.4,2.2-2.3,8.3-9.9,17.1-11.9,13.9-16.5,33.6-28.2,46.8,11.6,13.5,27.3,22.9,44.6,26.7,4,.9,6-.1,6.4-1.8.4-1.7-1-4.2-4-6.1-14.8-9.7-21.3-26.9-14.5-44.3,5.6-14.4,19.9-27.4,40.8-31.8,22.1-4.7,58.8-4.4,77.8-12.9,15.3-6.9,23.2-8.3,24.8-5.5,1.7,3-3.4,10.9-13.9,22.2-13.2,14.3-27.5,32.9-29.8,51-2,15.9,5.4,31.5,31.3,43.3,4,1.8,6.6.3,7.2-1,.8-1.7-1-4.7-4.5-7.3-15.6-11.5-20.8-30.5-11.3-47.8,7.6-13.8,23.9-24.9,45.9-26.1,22.6-1.2,58.8,4.9,78.9-.6,16.2-4.4,24.2-4.6,25.4-1.6,1.2,3.3-5,10.2-17.2,19.8-15.2,12.1-25.7,22.7-23.6,42.4,1.6,14.6,10.2,28,23.7,35.3,2.7,1.5,4.8,1.2,5.5,0,.6-1.1.2-2.9-1.6-4.8-11.4-12.3-13.2-29.3-4.1-44.2,9.1-14.9,25.7-23,42.9-24.7,22.6-2.2,58.8,2.4,78.8-3.9,2.6-.8,25.3-8.4,25.5-1.7,30.1-16.7,48.2-41.8,49.5-76,1.1-27.8-8.8-61.7-32.4-101.7-57-93.2-147.4-163.2-246.3-207.5-6-2.7-11.2-2-14.1.9-3,3-3.8,8.4-.7,15,8.3,17.5,16.6,35.6,23.3,52.4,15.8,40,19.2,64.6,12.5,70.4-6.9,6-24.8-8.5-50.6-47.4-20-30.2-41.4-67.3-65.4-95.9-18.7-22.3-39.1-39.5-61.6-44.2-34.3-6.5-55.4-10.2-89.8-11.7-10.9-.4-19.1,3-23.8,9-5.6,7.2-6.2,18,0,29.7,10.8,21,22,43.4,34.5,73.7,16.2,39.1,26.1,74.6,12.4,82.1-13.3,7.3-37.9-15.6-65.6-46.7-38.1-42.6-82.1-100.6-111.2-116.3-26.6-14.3-56.7-17.8-93.3-8.1-26.4,7-44,12.3-67.1,21.5-10.8,4.3-17.7,10.8-20.4,18.7-2.9,8.5-1,18.6,5.9,29.1,24.3,36.9,42.1,67.7,64.1,106.2,28.9,50.5,37.3,72.8,32.5,77.3-6.1,5.7-33.3-17-66.7-46.9-32.9-29.3-71.8-65.6-102.5-88.5-16.8-12.5-30.7-18.4-45.5-16.7-17.7,2-36.7,14.8-64,39.7-34.4,31.4-63.7,66.4-86.8,104.2-37.6,63.9-40.6,111.8-19.2,145.1,23.9,37.2,78.5,55.9,149.3,57.7-70.4,27.4-138.6,48.2-192.8,57.3-4.2.7-6,3.1-5.6,5.2.4,1.9,2.8,3.5,7,2.8,92-15.1,183.1-34.6,268.7-71.5,81.4-35.1,155.3-84.1,249-159.1,3.3-2.6,6.1-2.5,7.4-1.1,1.4,1.4,1.2,4.2-1.3,6.7-61.3,61.9-130.2,115.6-204.9,159.9h0ZM1261.2,1063.1c4.9-6.6,10.9-12.3,17.7-16.7,8.9-5.8,19.2-9.5,30-10.7,2.8-.3,4.5.5,4.8,1.7.3,1.1-.6,2.7-2.9,3.9-15.5,7.9-30.5,16.6-45.2,25.9-2.8,1.8-4.9,1.9-5.7,1-.8-.9-.5-2.8,1.2-5.2h0ZM1367.5,1065.4c6.9-9.4,15.5-17.4,25.1-23.6,11.9-7.6,25.5-12.4,39.8-14,3.9-.4,6.1.7,6.6,2.3.4,1.6-.8,3.7-4,5.3-21,10.9-41.6,22.7-61.5,35.6-3.9,2.5-6.6,2.6-7.7,1.4-1.1-1.2-.7-3.9,1.7-7.1h0ZM1486.3,1079.6c8.4-7.9,18.1-14.2,28.5-18.5,13.2-5.4,27.6-7.9,42.1-6.8,3.9.3,5.9,1.8,6.1,3.5.1,1.6-1.5,3.5-4.9,4.5-22.7,6.9-45,14.9-66.9,24-4.2,1.8-7,1.4-7.9,0-.9-1.4,0-3.9,2.9-6.7h0ZM1617.6,1095.4c9.3-7.7,20-13.4,31.3-16.9,13.1-4.1,27.1-5.3,41-3.4,3.8.5,5.8,2.2,5.8,3.9,0,1.6-1.7,3.4-5.2,4.2-23.1,5.3-45.9,11.7-68.4,19.3-4.4,1.5-7.1.9-7.8-.5-.8-1.5.3-3.9,3.4-6.5Z"/>
      <path id="Layer_21" data-name="Layer_2" class="st4" d="M943.4,849.7c-28.9-26-58.4-54-89.5-77.1-6.4-4.8-10.8-7.9-15-9-4.8-1.2-9.6.3-17.3,5.2-41.2,26.4-94.5,90.1-116.7,132.3-3.9,7.4-4.1,12.3-2,13.7,2.2,1.5,6.8-.7,12.4-7.6,31.3-38,62.6-62.8,93.7-74.5,42.5-15.9,84.8-7.3,126.9,25.8,6.3,4.9,10.6,5.4,12.4,3.6,2.1-2.1.7-7.4-5.1-12.6h0ZM1161.6,721.6c-22-25.6-42.7-48.4-55.6-55.3-9-4.9-18.5-7.9-28.6-8.8-13.7-1.3-26.8,1.1-40,4.6-18.5,5-36.4,10.3-54.3,17.1,18.1,27.6,35,55.9,51.5,84.5,26.2,45.4,41.6,68.2,45.8,68.2,4.5,0-4.2-26.4-26.7-79.3-15.6-36.7-24.5-55.3-23.1-56.3,1.3-1,12.5,14.9,36.7,47,40.9,54.3,62.9,81,65.8,79.2,2.3-1.5-7.2-20.7-28.5-58.1-27.2-47.8-42.1-71.5-41-72.4,1.1-.9,17.9,20.4,54.2,62.5,36,41.7,57.2,64.3,59.4,62.5,2-1.7-11.8-23.5-44.6-69.5-27.6-38.6-41.7-57.3-40.5-58.2,1.2-.8,17.7,16.2,51.4,49.2,61.7,60.3,86.4,80.6,89.5,78.2,4.3-3.4-33.4-50.9-71.4-95h0ZM1446.1,747.8c-27.4-43.1-58.3-91.8-86.3-97.8-21.5-4.1-42.8-7.9-64.6-9.8,18.6,36.8,32.7,73.3,47.1,111.7,15,39.7,24.1,60.3,26.7,60.2,2.6-.2-1.2-20.9-12-63.9-11.8-46.7-15.6-64.9-14.3-65.7,2.2-1.2,18.1,43.1,36.2,86,12.7,30.1,20.3,45.9,22,45.2,1.6-.7-2-16-11.7-47.7-11.5-37.4-16.6-53.7-15.1-54.4,1.7-.8,12.6,19.8,33,53,21.2,34.5,33.5,53.6,35.1,52.7,1.4-.8-6-18.2-23.8-55.7-19.4-40.9-29.4-60.8-28.4-61.7,1.1-.9,13.9,18.2,40.3,55.3,37.5,52.6,58.1,77,60.8,74.9,2.7-2.1-12.1-30-45.2-82.2h0ZM1723.9,867.4c-33.5-47.6-77.2-88.4-125.3-121.1-5.5-3.7-10.8-4.1-14.3-1.9-3.6,2.2-5.4,7-3.7,13.6,3.9,15.6,7,33.1,2.6,49-2.1,7.6-1.4,13.5,1.1,14.5,2.2.8,5.7-2,10.1-10.6,16.8-32.5,56.9-11.2,120.1,63.7,4.7,5.6,9.2,7,11.4,5.5,2.4-1.6,2.4-6.3-2-12.7Z"/>
      <path id="Layer_11" data-name="Layer_1" class="st4" d="M352.8,1219.2c298-67.7,541.3-102.3,783.8-103.5,244-1.2,487.3,31.3,784.9,97.9,13-25,51.7-36.4,79.4-22.4,19.9,10.1,36.9,28.3,57.2,36.7,14.3,5.9,22.2,10.9,21.9,14.4-.3,3.3-8,5.3-24.8,5.4-20.8.2-53.9,15.9-76,20.9-34.1,7.7-61.2-12.4-61.9-36.5-216.2-55.1-498.8-82.1-780.6-81.2-282.8.9-564.7,30-777.8,87.2-10.7,2.9-17.1-.4-18.5-5-1.6-5,2.5-11.6,12.6-13.8h0ZM755.4,1198.1c-8.2.4-11.6,4-11.5,7.7.1,4.1,4.8,8.2,12.5,7.8,62.7-3.5,152,3.1,240.5,15.9,87.5,12.7,174.3,31.5,234.1,52.7,7.2,2.6,13.2.3,14.7-3.5,1.4-3.5-1.2-8.3-10.4-11.5-91.3-32.7-162.1-52.7-234.6-63.2-72.9-10.6-147.1-11.5-245.3-5.9h0ZM1297.5,1190.2c-10.8-21.9-40.6-33.3-60.8-23.8,11.9,16.1,26.2,30.3,42.4,42.1,5.8,4.2,7.3,8.3,5.9,10.3-1.4,2.1-5.8,2.2-11.7-1.4-17.6-11-35-22.5-52-34.3-5.2,15.5,3.5,36.1,25.4,45.9,16.4,7.3,45,13.2,58.3,23,10.7,7.9,16.6,10.4,18.4,8.4,1.8-2.1-.8-9-7.1-19.6-8.8-15-10.9-34.7-18.7-50.6h0ZM1419.5,1206.4c-14.2-28.6-53.8-42.8-79.2-28.6,12.5,17.9,28,33.7,45.6,46.6,5.8,4.2,7.3,8.3,5.9,10.3-1.4,2.1-5.8,2.2-11.7-1.4-19-11.9-37.7-24.3-56.1-37.2-7.5,19.6,3.3,46.4,31.5,59.1,20.7,9.3,56.5,16.6,73.4,29,13.5,9.9,20.9,13,23.1,10.6,2.3-2.6-1-11.3-8.9-24.7-11.1-18.9-13.7-43.7-23.6-63.7h0ZM1537.4,1205.5c-15.6-24.7-51.1-35.1-75.3-23.9,13.6,17.1,30,31.9,48.4,43.7,6.1,3.9,7.8,7.8,6.5,10-1.3,2.2-5.7,2.6-11.8-.7-20.8-11.3-41.3-23.2-61.5-35.6-10.5,21,2.5,51.1,35.1,61.8,21.5,7,58.1,10.6,76,21.1,14.5,8.5,22.2,10.8,24.1,8.1,2-2.8-2.2-11.2-11.4-23.6-13-17.7-18.2-42-30.1-60.9h0ZM1668.8,1230.1c-12.6-30.2-53-47-79.2-32.5,13.4,16.6,29.4,30.9,47.4,42.4,6.1,3.9,7.8,7.8,6.5,10-1.3,2.2-5.7,2.6-11.8-.7-19.7-10.7-39.1-21.9-58.3-33.6-7.4,19,1.9,45.2,28.4,59.2,20,10.5,55.4,20.2,71.4,33.6,12.9,10.8,20.1,14.3,22.4,12,2.5-2.4-.3-11.4-7.3-25.2-9.9-19.6-10.9-44.5-19.5-65.1h0ZM1786.2,1242.5c-10.9-26.8-43.7-43.4-69.3-37,9.2,19.9,21.6,38.1,36.7,53.9,5,5.2,5.7,9.4,4,11.2-1.8,1.8-6.1,1.2-11.3-3.5-17.3-15.6-34.2-31.8-50.6-48.4-14.7,18.7-7.4,51.2,23.1,67.7,19.9,10.8,55.2,20.7,71,34.2,12.8,10.9,19.9,14.5,22.3,12.2,2.5-2.4-.2-11.4-7.1-25.2-9.7-19.7-10.5-44.6-18.9-65.3h0ZM1801.1,1153c15.8-15.8,26.2-38.4,42.8-52.8,11.7-10.1,17.7-17.3,16.3-20.5-1.3-3-9.3-2.5-25.3,2.6-19.8,6.3-56.3,1.8-78.8,4-31.2,3-50.1,25.6-48.7,46.9,21.8-2.2,43-8,62.9-17.1,6.5-3,10.8-2.3,11.9,0,1.1,2.3-.9,6.2-6.9,9.5-19,10.5-38.3,20.4-57.8,29.9,19.7,21,61.3,20,83.6-2.3h0ZM1872.7,1320.7c22.2-2.2,44.6-13.1,66.6-13.6,15.5-.4,24.6-2.1,25.6-5.5.9-3.2-5.6-7.8-21.2-14-19.3-7.7-44.6-34.3-63.3-47-19.9-13.4-41.6-13.4-56.2-4.9,0,0,43.3,31.7,52.2,37,7.8,4.7,9.9,8.6,8.4,10.5-1.4,1.9-5.9,2.1-11.5-.1-22-8.7-43.6-18-65.1-28-10.7,36.5,30.6,68.8,64.4,65.5h0ZM1913.1,1185.9c19.1-11.6,34.6-31,54.2-41,13.8-7,21.3-12.6,20.8-16-.5-3.2-8.4-4.6-25.2-3.5-20.8,1.4-55-11.8-77.4-15.1-29.8-4.4-52.9,11.5-58,31.3,21.7,2.6,43.8,1.6,65.2-3,7-1.5,11,0,11.6,2.5.6,2.5-2.2,5.8-8.9,7.8-21.5,6.3-43.2,12-65.1,17.1,13,26.7,55,36.7,82.8,19.9Z"/>
    </g>
  </g>
</svg>